REM MD5 6ad0286decb775ef0991c5f6aba89dbd
FILE "Hissatsu Pachinko Station Now 4 - Ore wa Nekketsu Bouken-ou da!! (Japan).bin" BINARY
  TRACK 01 MODE2/2352
    INDEX 01 00:00:00
  TRACK 02 AUDIO
    INDEX 00 01:30:26
    INDEX 01 01:32:26
  TRACK 03 AUDIO
    INDEX 00 06:54:10
    INDEX 01 06:56:10
  TRACK 04 AUDIO
    INDEX 00 12:34:55
    INDEX 01 12:36:55
  TRACK 05 AUDIO
    INDEX 00 17:35:18
    INDEX 01 17:37:18
REM LEADOUT 20:37:47
